/* XPM */
static char * angle_bisector_xpm[] = {
"32 32 6 1",
" 	c None",
".	c #303030",
"+	c #F9E595",
"@	c #FFCD00",
"#	c #BFA026",
"$	c #000000",
"                                ",
"                                ",
"                  ..            ",
"                 .+@.           ",
"                .+@@#.          ",
"                .@@@#.          ",
"                 .##.           ",
"                  ..$           ",
"                    $$          ",
"                    $$          ",
"      $              $$         ",
"      $$             $$         ",
"       $$$            $$        ",
"        $$$           $$        ",
"          $$           $$       ",
"           $$$         $$       ",
"            $$$        $$$      ",
"              $$$     $$$$      ",
"               $$$   $$  $$     ",
"                 $$$$$   $$     ",
"                  $$$$    $$    ",
"                   $$$$   $$    ",
"                  $$  $$$  $$   ",
"         ..       $$   $$$ .$   ",
"        .+@.      $$     $.+@.  ",
"       .+@@#.$$$$$$$$$$$$.+@@#. ",
"       .@@@#.$$$$$$$$$$$$.@@@#. ",
"        .##.              .##.  ",
"         ..                ..   ",
"                                ",
"                                ",
"                                "};
