/* XPM */
static const char *button_cancel_xpm[]={
"32 32 145 2",
".# c None",
"Qt c None",
".e c #000000",
".j c #000000",
".d c #000000",
".i c #000000",
".o c #000000",
"#L c #000000",
".t c #000000",
"#m c #000000",
"#t c #000000",
".7 c #000000",
"#K c #000000",
"ao c #000000",
"#e c #000000",
".f c #c91700",
"#l c #000000",
"#s c #b31400",
".c c #bf2d00",
"an c #000000",
".n c #9a2200",
"ac c #800000",
"a. c #800100",
"#5 c #800200",
"#0 c #810300",
"#V c #820400",
"#r c #8c1100",
"#j c #8d1400",
"#a c #8e1600",
".2 c #901800",
".S c #921a00",
".I c #941c00",
".y c #961e00",
"#Q c #7a0400",
".a c #e33700",
"#J c #5f0400",
".h c #bf1500",
"ah c #bd1500",
"#d c #5b0400",
"#k c #580400",
".s c #a90f00",
"al c #a70f00",
".X c #a00a00",
".N c #a10b00",
".D c #a20d00",
"ak c #830000",
"am c #800000",
".g c #cb1700",
"af c #cc1700",
".p c #cb1700",
".b c #e43700",
"#y c #ca1700",
"ae c #bc0000",
"#9 c #bc0100",
"#4 c #bd0300",
"#Z c #be0400",
"#U c #bf0600",
"#x c #cb1800",
"#q c #ce1c00",
"#i c #d01e00",
"## c #d22100",
".1 c #d42500",
".R c #d62800",
".H c #d92a00",
".x c #dc2e00",
".m c #de3200",
"#P c #bf0800",
".6 c #c10b00",
"#I c #bf0900",
"#c c #c00b00",
"aj c #be0000",
".W c #c60d00",
".M c #c70e00",
".C c #c91100",
".r c #cb1500",
"ag c #ce0000",
".5 c #d41f09",
"ad c #d70000",
"ab c #d70100",
"#8 c #d70300",
"#3 c #d70901",
"#Y c #d81104",
"#T c #d81707",
".q c #d83110",
"#O c #d91e0a",
"#H c #da230d",
"#b c #da280f",
".z c #df3d1a",
"#F c #e0411d",
"#w c #e14720",
"#C c #e24421",
"#B c #e24722",
"#p c #e24c22",
"#h c #e35126",
".k c #e53700",
"#. c #e55628",
"ai c #e60000",
".0 c #e75b2c",
".Q c #e8602f",
".V c #ea3f22",
".l c #ea5c20",
".G c #ea6531",
".L c #eb4828",
".B c #eb502e",
".w c #ec6a34",
".u c #f59466",
"aa c #fe0000",
"a# c #fe0300",
"#7 c #fe0902",
"#6 c #fe1206",
"#2 c #fe1a0b",
"#1 c #fe210f",
"#X c #fe2914",
"#W c #fe2f19",
"#S c #fe361d",
"#R c #fe3d23",
"#N c #fe4428",
"#M c #fe4a2e",
"#G c #fe5033",
".4 c #fe5538",
".3 c #fe5b3d",
".U c #fe6143",
".T c #fe6648",
".K c #fe6c4e",
".J c #fe7153",
".A c #fe7759",
"#E c #fe7c5e",
"#D c #fe8163",
"#A c #fe8668",
"#z c #fe8a6d",
"#v c #fe8f73",
"#u c #fe9478",
"#o c #fe997d",
"#n c #fe9d82",
"#g c #fea187",
"#f c #fea58c",
".9 c #feaa91",
".8 c #feae96",
".Z c #feb19a",
".Y c #feb59f",
".P c #feb9a3",
".O c #febda8",
".F c #fec0ac",
".E c #fec4b1",
".v c #fec7b5",
"QtQtQtQtQtQtQtQtQtQtQtQtQtQtQtQtQtQtQtQtQtQtQtQtQtQtQtQtQtQtQtQt",
"Qt.#.#.#.#.a.b.c.d.e.#.#.#.#.#.#.#.#.#.#.#.#.#.#.f.g.h.i.j.#.#.#",
"Qt.#.#.#.a.k.l.m.n.o.e.#.#.#.#.#.#.#.#.#.#.#.#.f.p.q.r.s.t.j.#.#",
"Qt.#.#.a.k.u.v.w.x.y.o.e.#.#.#.#.#.#.#.#.#.#.f.p.z.A.B.C.D.t.j.#",
"Qt.#.a.k.u.v.E.F.G.H.I.o.e.#.#.#.#.#.#.#.#.f.p.z.A.J.K.L.M.N.t.j",
"Qt.a.k.u.v.E.F.O.P.Q.R.S.o.e.#.#.#.#.#.#.f.p.z.A.J.K.T.U.V.W.X.t",
"Qt.b.l.v.E.F.O.P.Y.Z.0.1.2.o.e.#.#.#.#.f.p.z.A.J.K.T.U.3.4.5.6.7",
"Qt.c.m.w.F.O.P.Y.Z.8.9#.###a.o.e.#.#.f.p.z.A.J.K.T.U.3.4#b#c#d#e",
"Qt.d.n.x.G.P.Y.Z.8.9#f#g#h#i#j.o.e.f.p.z.A.J.K.T.U.3.4#b#c#k#l#m",
"Qt.e.o.y.H.Q.Z.8.9#f#g#n#o#p#q#r#s.p.z.A.J.K.T.U.3.4#b#c#k#l#t.o",
"Qt.#.e.o.I.R.0.9#f#g#n#o#u#v#w#x#y.z.A.J.K.T.U.3.4#b#c#k#l#t.o.e",
"Qt.#.#.e.o.S.1#.#g#n#o#u#v#z#A#B#C.A.J.K.T.U.3.4#b#c#k#l#t.o.e.#",
"Qt.#.#.#.e.o.2###h#o#u#v#z#A#D#E.A.J.K.T.U.3.4#b#c#k#l#t.o.e.#.#",
"Qt.#.#.#.#.e.o#a#i#p#v#z#A#D#E.A.J.K.T.U.3.4#b#c#k#l#t.o.e.#.#.#",
"Qt.#.#.#.#.#.e.o#j#q#w#A#D#E.A.J.K.T.U.3.4#b#c#k#l#t.o.e.#.#.#.#",
"Qt.#.#.#.#.#.#.e.o#r#x#F#E.A.J.K.T.U.3.4#b#c#k#l#t.o.e.#.#.#.#.#",
"Qt.#.#.#.#.#.#.#.e#s#y.z.A.J.K.T.U.3.4#G#H#I#J#K#L.e.#.#.#.#.#.#",
"Qt.#.#.#.#.#.#.#.f.p.z.A.J.K.T.U.3.4#G#M#N#O#P#Q#L.e.#.#.#.#.#.#",
"Qt.#.#.#.#.#.#.f.p.z.A.J.K.T.U.3.4#G#M#N#R#S#T#U#V.o.e.#.#.#.#.#",
"Qt.#.#.#.#.#.f.p.z.A.J.K.T.U.3.4#G#M#N#R#S#W#X#Y#Z#0.o.e.#.#.#.#",
"Qt.#.#.#.#.f.p.z.A.J.K.T.U.3.4#b#H#N#R#S#W#X#1#2#3#4#5.o.e.#.#.#",
"Qt.#.#.#.f.p.z.A.J.K.T.U.3.4#b#c#I#O#S#W#X#1#2#6#7#8#9a..o.e.#.#",
"Qt.#.#.f.p.z.A.J.K.T.U.3.4#b#c#k#J#P#T#X#1#2#6#7a#aaab#9ac.o.e.#",
"Qt.#.f.p.z.A.J.K.T.U.3.4#b#c#k#l#K#Q#U#Y#2#6#7a#aaaaaaadaeac.o.e",
"Qt.f.p.z.A.J.K.T.U.3.4#b#c#k#l#t#L#L#V#Z#3#7a#aaaaaaaaaaadaeac.o",
"Qtaf.q.A.J.K.T.U.3.4#b#c#k#l#t.o.e.e.o#0#4#8aaaaaaaaaaaaaaagae#m",
"Qtah.r.B.K.T.U.3.4#b#c#k#l#t.o.e.#.#.e.o#5#9abaaaaaaaaaaaiajak#e",
"Qt.oal.C.L.U.3.4#b#c#k#l#t.o.e.#.#.#.#.e.oa.#9adaaaaaaaiajaman.7",
"Qt.j.t.D.M.V.4#b#c#k#l#t.o.e.#.#.#.#.#.#.e.oacaeadaaaiajamanao.t",
"Qt.#.j.t.N.W.5#c#k#l#t.o.e.#.#.#.#.#.#.#.#.e.oacaeagajamanao.t.j",
"Qt.#.#.j.t.X.6#d#l#t.o.e.#.#.#.#.#.#.#.#.#.#.e.oacaeakanao.t.j.#",
"Qt.#.#.#.j.t.7#e#m.o.e.#.#.#.#.#.#.#.#.#.#.#.#.e.o#m#e.7.t.j.#.#"};
