/* XPM */
static const char *button_ok_xpm[]={
"32 32 235 2",
".# c None",
"Qt c None",
".f c #000000",
".e c #000000",
".n c #000000",
"bN c #000000",
".3 c #000000",
"bz c #000000",
"#Q c #000000",
"#y c #000000",
"#g c #000000",
"bb c #000000",
".2 c #000000",
".N c #000000",
".m c #000000",
"aR c #000000",
"#X c #008100",
"#F c #008500",
"#n c #008900",
".v c #000000",
"bM c #000000",
"at c #000000",
"bJ c #000000",
"#7 c #000000",
"by c #000000",
"#P c #000000",
"bt c #000000",
"#x c #000000",
"#f c #000000",
"ba c #000000",
".1 c #000000",
".8 c #008900",
".S c #008d00",
".F c #009100",
".w c #009500",
".M c #000000",
".B c #000000",
"aQ c #000000",
"bO c #000000",
"bK c #004b00",
"aY c #005400",
"#R c #006c00",
"aI c #000000",
"aC c #000000",
"as c #000000",
"bI c #000000",
"ai c #000000",
"#6 c #000000",
"#O c #000000",
"bs c #000000",
"#w c #000000",
"bj c #000000",
".r c #000000",
".0 c #000000",
"a6 c #000000",
".A c #000000",
"aP c #000000",
"aH c #000000",
"ar c #000000",
".o c #009d00",
".d c #04a100",
".g c #05a200",
".a c #15ab00",
"bH c #000000",
"ah c #001a00",
"bE c #001200",
"br c #001200",
"#5 c #001a00",
"#N c #001b00",
"bk c #005300",
"au c #006b00",
".O c #008700",
"#v c #003000",
"bi c #002a00",
"b# c #002c00",
"a5 c #002e00",
"#e c #004100",
".Z c #004300",
"bF c #005600",
"aS c #006300",
"#z c #007f00",
".L c #005f00",
"#Y c #008100",
"#G c #008500",
".q c #007500",
"ac c #007500",
".z c #006d00",
"aX c #004700",
"aO c #004a00",
"aG c #004d00",
"#o c #008900",
".j c #0c9100",
"bc c #005800",
"aj c #007400",
".C c #009100",
".9 c #008c00",
".T c #009100",
".G c #009500",
".x c #009900",
".l c #009a00",
".u c #008e00",
"ab c #007200",
"#W c #007600",
"#E c #007a00",
"#m c #007e00",
".7 c #008200",
".R c #008600",
".E c #008900",
"bA c #005700",
"aJ c #006900",
"#h c #008600",
"bL c #004f00",
"bG c #004d00",
"aB c #006400",
"aq c #006800",
"ag c #006b00",
".p c #009e00",
".h c #08a400",
".b c #18ad00",
"bD c #005300",
"bq c #005500",
"#4 c #007b00",
"#M c #007f00",
"#u c #008200",
".s c #009b00",
"a7 c #005f00",
"#8 c #007d00",
"bh c #005800",
"ad c #007d00",
"#Z c #008100",
"#H c #008500",
".K c #009600",
"b. c #005e00",
"a4 c #006200",
"#d c #008c00",
".Y c #009100",
"bl c #005b00",
"bx c #006100",
"bp c #006200",
"bg c #006300",
"aZ c #006400",
"aW c #006900",
"bd c #006a00",
"aN c #006d00",
"aT c #007000",
"aD c #007100",
"a9 c #007500",
"av c #007600",
"bB c #007800",
"a3 c #007900",
"an c #007a00",
"aa c #007e00",
"#S c #008300",
"#D c #008700",
"#0 c #008a00",
"#l c #008b00",
".4 c #008f00",
"ak c #009000",
"aK c #009100",
"bu c #009200",
".P c #009400",
"bC c #009500",
".D c #009800",
".t c #009c00",
"aF c #009d00",
"bw c #009f00",
".k c #00a100",
"aA c #00a300",
"ao c #00a700",
"bo c #00b000",
"a0 c #00b200",
"#9 c #00b400",
"bf c #00b500",
"bm c #00b600",
"ae c #00bb00",
"bv c #00bd00",
"#1 c #00c100",
"bn c #00c300",
"am c #00c600",
"be c #00c900",
"a# c #00cb00",
"a2 c #00ce00",
"a8 c #00cf00",
"aV c #00d400",
"a1 c #00d500",
"ay c #00d700",
"aM c #00da00",
"aU c #00db00",
"az c #00de00",
"aw c #00df00",
"aL c #00e100",
"ap c #00e400",
"aE c #00e800",
"ax c #00ee00",
"af c #00f200",
"al c #00f400",
"a. c #00fa00",
"#I c #018e01",
"#V c #02d002",
"#A c #038e03",
"#p c #039203",
"#T c #04e004",
"#2 c #04f704",
"#t c #059205",
"#. c #059605",
"#3 c #05d005",
"#U c #05ff05",
".i c #0aa700",
".y c #0ba20b",
"#c c #0e9d0e",
"#J c #0ec30e",
".U c #0fa10f",
".H c #12a512",
"#C c #13d213",
"#i c #15af15",
".X c #1aa71a",
".c c #1ab000",
"#q c #1dc51d",
"#L c #1de81d",
".J c #1fab1f",
"#K c #1ff81f",
"#B c #22ff22",
"#k c #26d426",
"## c #2dc82d",
"#s c #37e937",
".6 c #3ad63a",
"#r c #3cf83c",
".5 c #3dd53d",
".Q c #3ec93e",
"#j c #41ff41",
".V c #4cd74c",
"#b c #50ea50",
".I c #56d256",
"#a c #60ff60",
".W c #78f878",
"QtQtQtQtQtQtQtQtQtQtQtQtQtQtQtQtQtQtQtQtQtQtQtQtQtQtQtQtQtQtQtQt",
"QtQtQtQtQtQtQtQtQtQtQtQtQtQtQtQtQtQtQtQtQtQtQtQtQtQtQtQtQtQtQtQt",
"QtQtQtQtQtQtQtQtQtQtQtQtQtQtQtQtQtQtQtQtQtQtQtQtQtQtQtQtQtQtQtQt",
"QtQtQtQtQtQtQtQtQtQtQtQtQtQtQtQtQtQtQtQtQtQtQtQtQtQtQtQtQtQtQtQt",
".#.#.#.#.#.#.#.#.#.#.#.#.#.#.#.#.#.#.#.#.#.#.#.#.#.#.#.#.#.a.b.c",
".d.e.f.#.#.#.#.#.#.#.#.#.#.#.#.#.#.#.#.#.#.#.#.#.#.#.#.g.h.i.i.j",
".k.l.m.n.#.#.#.#.#.#.#.#.#.#.#.#.#.#.#.#.#.#.#.#.#.o.p.k.k.k.q.r",
".s.t.u.v.n.#.#.#.#.#.#.#.#.#.#.#.#.#.#.#.#.#.#.w.x.t.y.t.t.z.A.B",
".C.D.D.E.v.n.#.#.#.#.#.#.#.#.#.#.#.#.#.#.#.F.G.D.H.I.J.K.L.A.M.N",
".O.P.Q.P.R.v.n.#.#.#.#.#.#.#.#.#.#.#.#.S.T.P.U.V.W.X.Y.Z.0.1.2.e",
".3.4.5.6.4.7.v.n.#.#.#.#.#.#.#.#.#.8.9.4#.###a#b#c#d#e.r#f#g.e.#",
".e#h#i#j#k#l#m.v.n.#.#.#.#.#.##n#o#l#p#q#r#j#s#t#u#v#w#x#y.f.#.#",
".##z#A#B#B#C#D#E.v.n.#.#.##F#G#H#I#J#K#B#B#L#A#M#N#O#P#Q.f.#.#.#",
".##R#S#T#U#U#V#S#W.v.n#X#Y#Z#0#1#2#U#U#U#3#S#4#5#6#7.3.f.#.#.#.#",
".#.n#8#9a.a.a.a#aaabacadaaaeafa.a.a.a.a#aaagahai#7.3.#.#.#.#.#.#",
".#.fajakalalalalamananaoapalalalalalamanaqarasat.3.#.#.#.#.#.#.#",
".#.#auavawaxaxaxaxayazaxaxaxaxaxaxaAavaBaraC.v.n.#.#.#.#.#.#.#.#",
".#.#.3aDaeaEaEaEaEaEaEaEaEaEaEaEaFaDaGaHaI.v.n.#.#.#.#.#.#.#.#.#",
".#.#.eaJaKaLaLaLaLaLaLaLaLaLaM.DaNaOaPaQaR.n.#.#.#.#.#.#.#.#.#.#",
".#.#.#aSaTaUaUaUaUaUaUaUaUaVaaaWaXaP.B.N.e.#.#.#.#.#.#.#.#.#.#.#",
".#.#.#aYaZa0a1a1a1a1a1a1a2a3a4a5a6.M.N.e.#.#.#.#.#.#.#.#.#.#.#.#",
".#.#.#.na7aka8a8a8a8a8#1a9b.b#.rbabb.e.#.#.#.#.#.#.#.#.#.#.#.#.#",
".#.#.#.fbcbdbebebebebfbgbhbibj#x#y.f.#.#.#.#.#.#.#.#.#.#.#.#.#.#",
".#.#.#.#bkblbmbnbnbobpbqbrbsbt#y.f.#.#.#.#.#.#.#.#.#.#.#.#.#.#.#",
".#.#.#.#.3blbubvbwbxbqbr#6bybz.f.#.#.#.#.#.#.#.#.#.#.#.#.#.#.#.#",
".#.#.#.#.ebAbBbCblbDbEai#7.3.#.#.#.#.#.#.#.#.#.#.#.#.#.#.#.#.#.#",
".#.#.#.#.#bFblblbGbHbIbJ.3.#.#.#.#.#.#.#.#.#.#.#.#.#.#.#.#.#.#.#",
".#.#.#.#.#bKblbLarasbMbN.#.#.#.#.#.#.#.#.#.#.#.#.#.#.#.#.#.#.#.#",
".#.#.#.#.#.nbJasbO.v.n.#.#.#.#.#.#.#.#.#.#.#.#.#.#.#.#.#.#.#.#.#",
".#.#.#.#.#.fbz.m.2.n.#.#.#.#.#.#.#.#.#.#.#.#.#.#.#.#.#.#.#.#.#.#",
"QtQtQtQtQtQtQtQtQtQtQtQtQtQtQtQtQtQtQtQtQtQtQtQtQtQtQtQtQtQtQtQt",
"QtQtQtQtQtQtQtQtQtQtQtQtQtQtQtQtQtQtQtQtQtQtQtQtQtQtQtQtQtQtQtQt"};
