/* XPM */
static char *centralsymmetry[] = {
/* columns rows colors chars-per-pixel */
"22 22 13 1",
"  c black",
". c gray19",
"X c #595454",
"o c #800000",
"O c red",
"+ c #BFA026",
"@ c #FFCD00",
"# c #A0A0A0",
"$ c #FF8080",
"% c #F9E595",
"& c #C5C2C5",
"* c #E6E6E6",
"= c None",
/* pixels */
"==========# XX##======",
"=========      X#=====",
"==..==== X===XX X#====",
"=.%@.==========X X====",
".%@@+.=========X  X===",
".@@@+.=======X      X=",
"=.++.========#X     &=",
"==..==========#X   ===",
"==========..===#X ====",
"=========.%@.===#=====",
"========.%@@+.========",
"========.@@@+.========",
"=========.++.=========",
"==========..==========",
"==================..==",
"=================.$O.=",
"================.$OOo.",
"================.OOOo.",
"=================.oo.=",
"==================..==",
"======================",
"======================"
};
