/* XPM */
static char *circlelineintersection[] = {
/* columns rows colors chars-per-pixel */
"22 22 8 1",
"  c black",
". c gray19",
"X c #595454",
"o c #800000",
"O c red",
"+ c #FF8080",
"@ c #E6E6E6",
"# c None",
/* pixels */
"##### .###############",
"###### .##############",
"###### ...############",
"#######.+O.###########",
"######.+OOo.##########",
"####XX.OOOo.XX########",
"###X  #.oo.#  X#######",
"##X ####.. .## X######",
"#X ######## .## X#####",
"#X ######## .## X#####",
"X ########## .## X####",
"X ########### .# X####",
"X ############ . X####",
"X ############ ...####",
"X #############.+O.###",
"X ############.+OOo.##",
"#X ###########.OOOo.##",
"#X ############.oo.###",
"##X ########## X.. .##",
"###X  ######  X#### .#",
"####..      ..##### .#",
"######XXXXXX######## X"
};
