/* XPM */
static char *circlebcp[] = {
/* columns rows colors chars-per-pixel */
"22 22 8 1",
"  c black",
". c gray19",
"X c #595454",
"o c #BFA026",
"O c #FFCD00",
"+ c #F9E595",
"@ c #E6E6E6",
"# c None",
/* pixels */
"######################",
"######################",
"#########XXXXXX#######",
"#######XX      XX#####",
"######X  ######  X####",
"#####X ########## X###",
"####X ############ X##",
"####X ############ X##",
"###..######..###### X#",
"##.+O.####.+O.##### X#",
"#.+OOo.##.+OOo.#### X#",
"#.OOOo.##.OOOo.#### X#",
"##.oo.####.oo.##### X#",
"###..######..###### X#",
"####X ############ X##",
"####X ############ X##",
"#####X ########## X###",
"######X  ######  X####",
"#######XX      XX#####",
"#########XXXXXX#######",
"######################",
"######################"
};
