/* XPM */
static char * circlebtp_xpm[] = {
"22 22 7 1",
" 	c None",
".	c #303030",
"+	c #F9E595",
"@	c #FFCD00",
"#	c #BFA026",
"$	c #595454",
"%	c #000000",
"         ..           ",
"        .+@.          ",
"       .+@@#.$$       ",
"       .@@@#.%%$$     ",
"      $%.##.   %%$..  ",
"     $%  ..      .+@. ",
"    $%          .+@@#.",
"    $%          .@@@#.",
"   ..            .##. ",
"  .+@.            ..$ ",
" .+@@#.            %$ ",
" .@@@#.            %$ ",
"  .##.             %$ ",
"   ..              %$ ",
"    $%            %$  ",
"    $%            %$  ",
"     $%          %$   ",
"      $%%      %%$    ",
"       $$%%%%%%$$     ",
"         $$$$$$       ",
"                      ",
"                      "};
