<?xml version="1.0" encoding="UTF-8" standalone="no"?>
<!DOCTYPE svg PUBLIC "-//W3C//DTD SVG 20010904//EN"
"http://www.w3.org/TR/2001/REC-SVG-20010904/DTD/svg10.dtd">
<!-- Created with Inkscape (http://www.inkscape.org/) -->
<svg
   version="1.0"
   x="0"
   y="0"
   width="48pt"
   height="48pt"
   id="svg1418"
   sodipodi:version="0.32"
   inkscape:version="0.37"
   sodipodi:docname="edit.svg"
   sodipodi:docbase="/home/tom/Pics/lilasvg/actions"
   xmlns="http://www.w3.org/2000/svg"
   xmlns:inkscape="http://www.inkscape.org/namespaces/inkscape"
   xmlns:sodipodi="http://sodipodi.sourceforge.net/DTD/sodipodi-0.dtd"
   xmlns:xlink="http://www.w3.org/1999/xlink">
  <sodipodi:namedview
     id="base"
     pagecolor="#ffffff"
     bordercolor="#666666"
     borderopacity="1.0"
     inkscape:pageopacity="0.0"
     inkscape:pageshadow="2"
     inkscape:zoom="6.94653375"
     inkscape:cx="25.5516764"
     inkscape:cy="23.2641838"
     inkscape:window-width="640"
     inkscape:window-height="501"
     inkscape:window-x="104"
     inkscape:window-y="147" />
  <defs
     id="defs1420">
    <linearGradient
       id="linearGradient1439">
      <stop
         style="stop-color:#ffffff;stop-opacity:1;"
         offset="0"
         id="stop1440" />
      <stop
         style="stop-color:#ffffff;stop-opacity:0;"
         offset="1"
         id="stop1441" />
    </linearGradient>
    <linearGradient
       id="linearGradient1432">
      <stop
         style="stop-color:#ffffff;stop-opacity:1;"
         offset="0.00000000"
         id="stop1433" />
      <stop
         style="stop-color:#e1d7eb;stop-opacity:1;"
         offset="1.00000000"
         id="stop1434" />
    </linearGradient>
    <linearGradient
       id="linearGradient1428">
      <stop
         style="stop-color:#f50000;stop-opacity:1;"
         offset="0.00000000"
         id="stop1429" />
      <stop
         style="stop-color:#a90000;stop-opacity:1;"
         offset="1.00000000"
         id="stop1430" />
    </linearGradient>
    <linearGradient
       id="linearGradient1422">
      <stop
         style="stop-color:#d7a600;stop-opacity:1;"
         offset="0.00000000"
         id="stop1423" />
      <stop
         style="stop-color:#fff300;stop-opacity:1;"
         offset="1.00000000"
         id="stop1424" />
    </linearGradient>
    <linearGradient
       x1="0.64516127"
       y1="0.66406250"
       x2="0.32258064"
       y2="0.32031250"
       id="linearGradient1425"
       xlink:href="#linearGradient1422" />
    <linearGradient
       x1="0.01923077"
       y1="0.00781250"
       x2="0.98076922"
       y2="0.98437500"
       id="linearGradient1427"
       xlink:href="#linearGradient1428" />
    <linearGradient
       x1="0.98101264"
       y1="0.92187500"
       x2="0.01898734"
       y2="0.02343750"
       id="linearGradient1435"
       xlink:href="#linearGradient1432" />
    <linearGradient
       x1="0.015748"
       y1="0.023437"
       x2="0.984252"
       y2="0.984375"
       id="linearGradient1438"
       xlink:href="#linearGradient1439" />
    <linearGradient
       id="linearGradient1443"
       xlink:href="#linearGradient1432"
       x1="0.00000000"
       y1="-0.00000000"
       x2="1.00000000"
       y2="-0.00000000" />
    <radialGradient
       xlink:href="#linearGradient1439"
       id="radialGradient621"
       cx="0.50000000"
       cy="0.50000000"
       r="0.50000000"
       fx="0.50000000"
       fy="0.50000000" />
  </defs>
  <path
     d="M 4.3742061 45.725038 C 5.1314891 47.987368 36.489604 58.159951 38.548486 56.452889 C 40.391412 54.908825 54.181164 8.9496416 53.257849 7.126902 C 52.298088 5.1173763 20.483082 0.11203341 18.972958 1.4864925 C 17.112813 3.1894488 3.5789051 43.129306 4.3742061 45.725038 z "
     style="font-size:12;fill:url(#linearGradient1443);fill-rule:evenodd;stroke:#261933;stroke-width:1.87726;"
     id="path634" />
  <path
     d="M 16.93488 44.619453 C 17.706388 45.379453 21.212755 44.499511 22.621737 43.078705 C 31.002398 34.627556 41.245793 23.962785 46.303865 15.003669 C 47.270207 13.292011 42.243063 9.7693913 40.694913 11.066312 C 32.842896 17.644143 24.900534 29.029152 18.103427 38.627816 C 16.980545 40.21353 16.200285 43.895821 16.93488 44.619453 z "
     style="font-size:12;opacity:0.3;fill:#3f3f19;fill-rule:evenodd;stroke-width:12.5;"
     id="path1442" />
  <path
     d="M 15.610516 43.506713 C 16.382025 44.266713 19.888392 43.386771 21.297374 41.965965 C 29.678035 33.514817 39.92143 22.850045 44.979497 13.890929 C 45.945845 12.17927 40.918701 8.6566578 39.37055 9.953578 C 31.518534 16.531403 23.57617 27.91641 16.779064 37.515076 C 15.656182 39.10079 14.875915 42.783081 15.610516 43.506713 z "
     style="font-size:12;fill:url(#linearGradient1425);fill-rule:evenodd;stroke:#3f3f19;stroke-width:1.21006;"
     id="path1421" />
  <path
     d="M 36.429801 13.248993 C 36.487114 13.89411 41.436812 17.733359 42.077642 17.657084 C 42.292214 17.645878 44.727483 13.691604 44.706887 13.420196 C 44.571735 11.89644 41.855238 10.130391 40.149623 10.103358 C 39.179925 10.087815 36.411775 13.067525 36.429801 13.248993 z "
     style="font-size:12;fill:url(#linearGradient1427);fill-rule:evenodd;stroke-width:1pt;"
     id="path1426" />
  <path
     d="M 34.006115 15.828085 C 34.066849 16.511809 39.31304 20.581038 39.992231 20.500209 C 40.219638 20.488353 42.249968 17.749843 42.228059 17.462169 C 42.084814 15.8471 38.258984 13.070272 36.461453 13.15985 C 36.092376 13.172213 33.98703 15.635772 34.006115 15.828085 z "
     style="font-size:12;fill:url(#linearGradient1435);fill-rule:evenodd;stroke:#3f3f19;stroke-width:0.645365pt;"
     id="path1431" />
  <ellipse
     cx="152.361847"
     cy="565.562134"
     rx="26.788887"
     ry="26.788879"
     transform="matrix(6.580033e-2,0.000000,0.000000,7.229817e-2,5.876730,2.216144)"
     style="font-size:12;fill:#3f3f19;fill-rule:evenodd;stroke-width:1pt;"
     id="path1436" />
  <path
     d="M 16.779064 40.51089 C 20.157713 33.90414 31.35923 18.834748 39.760154 10.980689 C 40.681426 10.01843 43.550385 12.077691 43.577295 12.521385 C 43.602295 12.933629 40.815988 12.608504 39.915965 13.548524 C 31.8832 21.938363 19.646511 36.091955 16.779064 40.51089 z "
     style="font-size:12;opacity:0.990000;fill:url(#linearGradient1438);fill-rule:evenodd;stroke:none;stroke-width:0.106874pt;"
     id="path1437" />
</svg>
