/* XPM */
static char * filenew_xpm[] = {
"32 32 58 1",
" 	c None",
".	c #C4D0E5",
"+	c #C2CEE5",
"@	c #9DAAC1",
"#	c #FBFFFF",
"$	c #FFFFFF",
"%	c #F3F9FF",
"&	c #EDF3FE",
"*	c #E6EDFA",
"=	c #D8E1F1",
"-	c #C2D0E9",
";	c #A7B2C4",
">	c #F4FDFF",
",	c #F1F6FF",
"'	c #EAF1FD",
")	c #E1E9F7",
"!	c #D6E0F1",
"~	c #BECAE2",
"{	c #EFF5FF",
"]	c #9EABC1",
"^	c #DEE9FB",
"/	c #DBE4F3",
"(	c #E7EEFB",
"_	c #DBE5F9",
":	c #A4AFC5",
"<	c #DFE7F6",
"[	c #E3EBF9",
"}	c #F3F5FB",
"|	c #ECF2F9",
"1	c #E4EBF7",
"2	c #CEDAF0",
"3	c #C8D4E7",
"4	c #98A9C5",
"5	c #B4C3DC",
"6	c #AEBEDB",
"7	c #8495B1",
"8	c #CCD7EA",
"9	c #BBC9E0",
"0	c #B9C6DF",
"a	c #B6C4DD",
"b	c #D5DFF0",
"c	c #C7D3E8",
"d	c #BDCBE5",
"e	c #D0DAED",
"f	c #CBD7EA",
"g	c #D2DCEF",
"h	c #CED9EC",
"i	c #C8D5EC",
"j	c #DAE3F3",
"k	c #D5E0F4",
"l	c #DDE5F4",
"m	c #D9E3F6",
"n	c #E3EBF8",
"o	c #DCE7F9",
"p	c #E8EFFB",
"q	c #F8FCFF",
"r	c #F2F7FF",
"s	c #E0EAFC",
"   .....++........@             ",
"   .#$$$$$$$$$%&*=-;            ",
"   .$$$$$$$$$>,')!~{]           ",
"   .#$$$$$$$$#%,*=+{^]          ",
"   .#$$$$$$$$$#,'/.$(_:         ",
"   .$$$$$$$$$$#%'<.$$&^;        ",
"   .#$$$$$$$$$#%&[~}|1=2@       ",
"   .#$$$$$$$$$$%,(34444444      ",
"   .#$$$$$$$$$$#,'*)!.5567      ",
"   .#$$$$$$$$$$>%&*<8~90a7      ",
"   .$$$$$$$$$$$#%{(bc..+d7      ",
"   .#$$$$$$$$$$$%'=e8f..-7      ",
"   .#$$$$$$$$$$%'<bgeh8fi7      ",
"   .$$$$$$$$$#%(<j=!bgeg27      ",
"   .#$$$$$$$$%'*)<</!!bb27      ",
"   .#$$$$$$${'(**))<<<==k7      ",
"   .#$$$$$$,{&''**))<ll=m7      ",
"   .$$$$$$%%,{{&'*)*no<l<7      ",
"   +#$$$$##%%,{&&((*nn<<_7      ",
"   +#$$$$##%%%,{''(*nn))_7      ",
"   .#$$$#>#%%%,,{'p**))o^7      ",
"   .#$$$###q%,,,&&'p*n)))7      ",
"   .$$$$#>%#%%%{{&((**))^7      ",
"   .#$$$###%%%%,{''**n))^7      ",
"   .$$$$#>q%qr,,{&'*()n)^7      ",
"   .#$$###q%%,,,&''*(*))^7      ",
"   .$$$##%#%%rr,&''(n)))s7      ",
"   .#$$>##%%%%r,&'((()))s7      ",
"   .>$$##>#,%%,,&''**)))^7      ",
"   .7777777777777777777777      ",
"                                ",
"                                "};
