/* XPM */
static char * fileopen_xpm[] = {
"32 32 218 2",
"  	c None",
". 	c #7C85B3",
"+ 	c #868BB7",
"@ 	c #757EB3",
"# 	c #848CBA",
"$ 	c #D2D5E9",
"% 	c #4D5376",
"& 	c #A2A9CD",
"* 	c #EDEDF9",
"= 	c #F3F3FB",
"- 	c #6D77AC",
"; 	c #8C94C0",
"> 	c #DEDEEA",
", 	c #FEFEFE",
"' 	c #979FC9",
") 	c #596190",
"! 	c #0B54C1",
"~ 	c #0851BE",
"{ 	c #064DBB",
"] 	c #0344A6",
"^ 	c #ACB3D4",
"/ 	c #E8F1FB",
"( 	c #EAEAF4",
"_ 	c #373C5B",
": 	c #4A80D3",
"< 	c #EBFDFF",
"[ 	c #DCFAFF",
"} 	c #D8F5FF",
"| 	c #D3F3FF",
"1 	c #C8EDFF",
"2 	c #85B7F3",
"3 	c #1358C2",
"4 	c #1349A4",
"5 	c #9CA2C8",
"6 	c #D8DFF1",
"7 	c #B9BEDD",
"8 	c #606AA4",
"9 	c #4780D3",
"0 	c #C7F1FF",
"a 	c #BCE9FF",
"b 	c #B5E4FF",
"c 	c #73ACE9",
"d 	c #7F85B8",
"e 	c #C1C6DE",
"f 	c #E5E5F3",
"g 	c #838CC0",
"h 	c #2C4C98",
"i 	c #002375",
"j 	c #CDF3FF",
"k 	c #9FB2D6",
"l 	c #DEE1F2",
"m 	c #5C6BAE",
"n 	c #053596",
"o 	c #447CD1",
"p 	c #B3D2F3",
"q 	c #919BC3",
"r 	c #CACEE4",
"s 	c #4D5B98",
"t 	c #C2EBFF",
"u 	c #BCCBEB",
"v 	c #7193D4",
"w 	c #7899D8",
"x 	c #2F56B0",
"y 	c #05389B",
"z 	c #0033A4",
"A 	c #0034AA",
"B 	c #E4FCFF",
"C 	c #BAE4FE",
"D 	c #99A0C4",
"E 	c #0D4DBA",
"F 	c #3C73CC",
"G 	c #6391DB",
"H 	c #5D8EDC",
"I 	c #5892DD",
"J 	c #5282D5",
"K 	c #0B47B6",
"L 	c #002D9A",
"M 	c #2A63C2",
"N 	c #4A7FD4",
"O 	c #B5D9FF",
"P 	c #89BDFC",
"Q 	c #86BCFE",
"R 	c #92C3FD",
"S 	c #7AAFFA",
"T 	c #5F9CEF",
"U 	c #568FE7",
"V 	c #003DB1",
"W 	c #3E79D1",
"X 	c #305EBA",
"Y 	c #4379CE",
"Z 	c #3C6FC8",
"` 	c #1D4CCB",
" .	c #BADDFF",
"..	c #64AAFF",
"+.	c #509EFF",
"@.	c #55A1FF",
"#.	c #1F62E2",
"$.	c #0025B2",
"%.	c #AEDBFF",
"&.	c #0752C1",
"*.	c #ABCAF3",
"=.	c #C5D9F6",
"-.	c #BFDAF3",
";.	c #BAD6F5",
">.	c #B4CEF2",
",.	c #A0C0EC",
"'.	c #6BAEFF",
").	c #5BA5FF",
"!.	c #316DE3",
"~.	c #032CB8",
"{.	c #002BAA",
"].	c #3472CE",
"^.	c #F3FFFF",
"/.	c #A4D3FD",
"(.	c #96CBFF",
"_.	c #79B9FF",
":.	c #4D96FA",
"<.	c #3C7AEA",
"[.	c #133EC2",
"}.	c #001EB2",
"|.	c #2366CA",
"1.	c #C6D5EA",
"2.	c #689CF2",
"3.	c #5590F3",
"4.	c #4582F0",
"5.	c #3877EC",
"6.	c #2B65DF",
"7.	c #2758D4",
"8.	c #001BAE",
"9.	c #001240",
"0.	c #C6E3F9",
"a.	c #81B5FA",
"b.	c #70A6F7",
"c.	c #639CF5",
"d.	c #518DF2",
"e.	c #306FEA",
"f.	c #2262E3",
"g.	c #215ADD",
"h.	c #1D4FD3",
"i.	c #0936C0",
"j.	c #0632BE",
"k.	c #002EC0",
"l.	c #0023AD",
"m.	c #316FCD",
"n.	c #5389D6",
"o.	c #99C7F2",
"p.	c #9CCCFE",
"q.	c #6CA3F6",
"r.	c #5C96F3",
"s.	c #4C87F1",
"t.	c #2B6CE9",
"u.	c #134CD4",
"v.	c #053AC7",
"w.	c #083FCC",
"x.	c #073CC9",
"y.	c #00248E",
"z.	c #A4DBFF",
"A.	c #76A8F5",
"B.	c #0946D4",
"C.	c #0745D3",
"D.	c #2B6ACB",
"E.	c #AAD6FB",
"F.	c #ADE1FF",
"G.	c #82B8F3",
"H.	c #74ABF9",
"I.	c #094DDB",
"J.	c #0950DF",
"K.	c #0029A3",
"L.	c #518DDB",
"M.	c #7AAAF0",
"N.	c #588DED",
"O.	c #386FE0",
"P.	c #2865E0",
"Q.	c #1F5ADC",
"R.	c #1E53D4",
"S.	c #1A44C3",
"T.	c #1038BC",
"U.	c #082AB1",
"V.	c #EAEBEF",
"W.	c #E2E3EC",
"X.	c #DADAE5",
"Y.	c #D5D5E1",
"Z.	c #CBCBDA",
"`.	c #C3C3D4",
" +	c #BEBED1",
".+	c #BBBBCD",
"++	c #B5B5CA",
"@+	c #083AAA",
"#+	c #001C74",
"$+	c #7CB4F3",
"%+	c #1253BF",
"&+	c #F1F1F5",
"*+	c #0026A4",
"=+	c #3D80D8",
"-+	c #769EDD",
";+	c #536FB8",
">+	c #00239B",
",+	c #D7E5FA",
"'+	c #1442AC",
")+	c #001B78",
"!+	c #0043B7",
"~+	c #2361C4",
"{+	c #D1D2DD",
"]+	c #CBCCD3",
"^+	c #C2C4CB",
"/+	c #BABDC4",
"(+	c #ABADB6",
"_+	c #A4A8B0",
":+	c #A2A4AE",
"<+	c #9198AA",
"[+	c #00114D",
"}+	c #0044B8",
"|+	c #3B6CC5",
"1+	c #3867C2",
"2+	c #3362BE",
"3+	c #2C5BB8",
"4+	c #2A58B5",
"5+	c #0D43AE",
"                                                                ",
"                                                                ",
"                                      . + @                     ",
"                                    # # $ # %                   ",
"                                # # & * = $ -                   ",
"                            # # ; > , * * , ' )                 ",
"  ! ~ ~ { { { { { { ]     # # ^ , = / * ( * / @ _               ",
"  : , < < [ } | 1 2 3 4 + 5 6 , / = = * ( ( = 7 8               ",
"  9 < | 0 0 0 a a b c d e , , , = = / * ( f f , g h i           ",
"  9 < j j 0 a a b k 5 ( , , , = = = = * ( ( f * l m n           ",
"  o < j j 0 a p q r , , , , , , = = * * ( ( f f , ^ s           ",
"  o < j j t k & = , , , , , = = = = * * ( u v v v w x y z A z z ",
"  o B j j C D , , , , , , , = , = = = = u E F G H H I : : J K L ",
"  o B j j 0 k r , , , , , , , , = = = l M N O P Q P R S T U V i ",
"  W [ j j 0 I X 9 9 o o Y Y Y F F F Z ` 9  ...+.@.+.+.@.#.$.A   ",
"  F } j j %.&.*.u =.=.-.;.p >.*.*.*.,.*. .'.@.+.+.+.).!.~.{.L   ",
"  W } j j c ].^.l / ^.B } j C O /.(.Q _.'.).+.+.:.<.[.$.}.{.i   ",
"  F | j j |.,.^.} 1.< [ | t %.R _.2.3.4.5.!.6.7.[.~.$.8.8.{.9.  ",
"  ].| j /.&.< < B 0.-.| %.P a.b.c.d.<.e.f.g.h.i.j.k.}.8.l.L     ",
"  m.j j I n., B } a o.p.(.P S q.r.s.<.t.f.u.v.w.x.k.}.8.{.y.    ",
"  ].0 j |.,.^.} a z.(.2 P Q A.c.3.4.5.#.B.C.B.w.x.k.}.8.{.      ",
"  D.t E.3 / | C F.z.(.G.G.a.H.c.d.4.#.I.J.I.B.w.x.k.}.l.K.      ",
"  D.t L.G | 1 t C %./.(.M.a.A.2.N.O.P.#.Q.R.` S.S.T.U.l.y.      ",
"  D.a 3 >., , , , , = = * V.V.W.> X.Y.Y.Z.Z.`. +.+++++@+#+      ",
"  D.$+%+, , , , , , , = &+( V.W.> X.Y.Y.Z.Z.Z.`. +.+q *+        ",
"  |.=+-+, , , , , , , = &+( V.V.W.> X.Y.Z.Z.Z.`. +.+;+>+        ",
"  |.~ ,+, , , , , , , = = &+&+V.W.> X.Y.Y.Z.Z.`.`..+'+)+        ",
"  !+~+, , , , , , , , , &+V.W.{+{+]+^+/+/+(+_+:+:+<+*+[+        ",
"  }+%+Y Y F F F F Z Z |+1+2+2+X 3+4+5+{.{.K.K.*+*+*+>+          ",
"                                                                ",
"                                                                ",
"                                                                "};
