/* XPM */
static char *filesaveas[] = {
/* columns rows colors chars-per-pixel */
"32 32 257 2",
"   c #000030",
".  c #03033F",
"X  c #0C0D35",
"o  c #11143C",
"O  c #050541",
"+  c #0A0A45",
"@  c #0F0F4B",
"#  c #11114D",
"$  c #191C45",
"%  c #171B45",
"&  c #161651",
"*  c #1B1B54",
"=  c #1F224D",
"-  c #1C2A54",
";  c #18366F",
":  c #12316B",
">  c #072764",
",  c #202254",
"<  c #232359",
"1  c #212F58",
"2  c #2A2B5B",
"3  c #262954",
"4  c #23315A",
"5  c #2B325D",
"6  c #2F2F64",
"7  c #2B3862",
"8  c #203C74",
"9  c #323B65",
"0  c #3E3E70",
"q  c #3A426B",
"w  c #33416A",
"e  c #304B7E",
"r  c #3A4771",
"t  c #284479",
"y  c #42456E",
"u  c #444C74",
"i  c #444776",
"p  c #48567D",
"a  c #485178",
"s  c #51537D",
"d  c #54587E",
"f  c #4D5C82",
"g  c #595C83",
"h  c #555884",
"j  c #536186",
"k  c #5A648B",
"l  c #5B698E",
"z  c #5A6388",
"x  c #5E6C90",
"c  c #526893",
"v  c #666788",
"b  c #6B6D94",
"n  c #616E93",
"m  c #6C728E",
"M  c #637194",
"N  c #65759A",
"B  c #697699",
"V  c #6C799B",
"C  c #6D7193",
"Z  c #73738D",
"A  c #74749A",
"S  c #7C7C93",
"D  c #7A7B9E",
"F  c #737799",
"G  c #6B7EA3",
"H  c #7D7DA2",
"J  c #76809F",
"K  c #7484A4",
"L  c #7B87A7",
"P  c #BB4400",
"I  c #AE6139",
"U  c #9A6047",
"Y  c #8F786E",
"T  c #996C6A",
"R  c #9C7971",
"E  c #AB6749",
"W  c #A6745E",
"Q  c #B46946",
"!  c #A77D72",
"~  c #B47A61",
"^  c #C15414",
"/  c #C16C39",
"(  c #C1703A",
")  c #D5742B",
"_  c #E67A1C",
"`  c #E67F27",
"'  c #C47E52",
"]  c #C67545",
"[  c #AB8876",
"{  c #B9A176",
"}  c #DD8032",
"|  c #DFA93D",
" . c #EC9A00",
".. c #EC9100",
"X. c #EE8521",
"o. c #FF9A2C",
"O. c #FF9F34",
"+. c #F79834",
"@. c #FFA81F",
"#. c #FFBD02",
"$. c #FFB908",
"%. c #F5BD01",
"&. c #FFB719",
"*. c #FFBE18",
"=. c #F6BD1F",
"-. c #FFA321",
";. c #FFA73D",
":. c #FFB12C",
">. c #F8BA36",
",. c #D78853",
"<. c #DD9A6E",
"1. c #DDB145",
"2. c #E6984E",
"3. c #FBA444",
"4. c #FFB14E",
"5. c #FDB058",
"6. c #FFB75A",
"7. c #EAAE6E",
"8. c #EEB472",
"9. c #FFBD68",
"0. c #F0B86E",
"q. c #F7C701",
"w. c #FFCA04",
"e. c #FFC10D",
"r. c #FBC414",
"t. c #FFC51B",
"y. c #FFDD0F",
"u. c #F9D30E",
"i. c #FFD314",
"p. c #FFC723",
"a. c #FFC629",
"s. c #FFC92A",
"d. c #FFCC33",
"f. c #FFCD3A",
"g. c #FFD927",
"h. c #FDDC3A",
"j. c #FEE302",
"k. c #FFEB01",
"l. c #FFEC0B",
"z. c #FFE818",
"x. c #FCE117",
"c. c #FFED2F",
"v. c #FEE828",
"b. c #FFF03D",
"n. c #FCC545",
"m. c #FFCC5C",
"M. c #FDD345",
"N. c #FDD24D",
"B. c #FFD95C",
"V. c #FFD556",
"C. c #F5C262",
"Z. c #FFC16F",
"A. c #F7C56B",
"S. c #F7CA7F",
"D. c #FFC779",
"F. c #FFDB68",
"G. c #FFD766",
"H. c #FFDD71",
"J. c #FFD87B",
"K. c #FFE651",
"L. c #FFF147",
"P. c #FFF25F",
"I. c #FFF255",
"U. c #FFEB68",
"Y. c #FFE26D",
"T. c #FFE07B",
"R. c #FFF46E",
"E. c #FFF27B",
"W. c #86869B",
"Q. c #9A878B",
"!. c #8383A4",
"~. c #808EAC",
"^. c #8A8AA4",
"/. c #8C8CAA",
"(. c #8494B2",
"). c #8B99B6",
"_. c #8D97B2",
"`. c #9293AD",
"'. c #9898A9",
"]. c #9595B2",
"[. c #949AB4",
"{. c #9A9AB4",
"}. c #95A2BC",
"|. c #9BA5BD",
" X c #A68A8E",
".X c #AA9F8B",
"XX c #B69897",
"oX c #B89E97",
"OX c #B29493",
"+X c #A0A0AF",
"@X c #A3A3B3",
"#X c #A2A2BA",
"$X c #A8A8BE",
"%X c #AAAAB6",
"&X c #B9AAB2",
"*X c #9F9FC0",
"=X c #99A7C0",
"-X c #9DAAC2",
";X c #A2AEC5",
":X c #ACACC2",
">X c #A8A8C8",
",X c #A4A4C4",
"<X c #A4B0C6",
"1X c #A6B2C8",
"2X c #AAB5CA",
"3X c #AEB9CD",
"4X c #B3B3CC",
"5X c #B0BACE",
"6X c #BBBBCD",
"7X c #B3BDD0",
"8X c #BABAD2",
"9X c #B7B7D3",
"0X c #B6C0D2",
"qX c #BBC4D4",
"wX c #C3A79D",
"eX c #CAAEA1",
"rX c #C6B7BB",
"tX c #E4B699",
"yX c #FFCB80",
"uX c #F1C28A",
"iX c #FFDC8B",
"pX c #FFD18A",
"aX c #FCD99D",
"sX c #FFD591",
"dX c #EDC8A1",
"fX c #F2D0B3",
"gX c #FFE483",
"hX c #FFE491",
"jX c #FFF686",
"kX c #FFF690",
"lX c #FFF49B",
"zX c #FFECB3",
"xX c #C2C2D3",
"cX c #C3CBDA",
"vX c #CBCBDB",
"bX c #C6C6D7",
"nX c #CAD1DE",
"mX c #D9CCC2",
"MX c #D1D1DD",
"NX c #CED4E1",
"BX c #D3D6E2",
"VX c #D3D9E4",
"CX c #D9DBE5",
"ZX c #DADFE8",
"AX c #DDE1EA",
"SX c #E9DECF",
"DX c #FBE5CE",
"FX c #FFEFD7",
"GX c #FEF0DC",
"HX c #E3E4EB",
"JX c #E9E9EF",
"KX c #EBECF1",
"LX c #E6E9F0",
"PX c #FEF9EF",
"IX c #FEFEFE",
"UX c #F2F2F5",
"YX c None",
/* pixels */
"YXYXYXYXYXYXYXYXYXYXYXYXYXYXYXYXYXYX .7.,.^ P YXYXYXYXYXYXYXYXYX",
"YXYXYXYXYXYXYXYXYXYXYXYXYXYXYXYXYX..u.zXGXDX<.P YXYXYXYXYXYXYXYX",
"YXYXYXYXYXYXYXYXYXYXYXYXYXYXYXYXYX .k.y.iXGXGX<.P YXYXYXYXYXYXYX",
"YX:X$X#X#X#X{.].`./.!.L !.D A C Y q.k.w.#.&.5.` P YXYXYXYXYXYXYX",
"2XKXLXHXIXIXVXVXVXVXIXIXIXIXIXIXm.k.j.#.#.-.o./ i YXYXYXYXYXYXYX",
"$XHXVXVXIXIX> 8 t e IXIXIXIXIXGX%.k.w.e.$.o._ Q.L & YXYXYXYXYXYX",
"#XAXVXNXIXIX: c N K IXIXIXIXIXC.j.j.r.$.@.o.I ).H * YXYXYXYXYXYX",
"#XAXNXvXIXIX; G L (.IXIXIXIXPXr.l.i.r.*.o.X.[ (.C * YXYXYXYXYXYX",
"{.AXvXcXIXIXe (.}.<XIXIXIXIXS.x.z.p.p.:.;.) (.K v & YXYXYXYXYXYX",
"[.VXcXcXIXIX(.5XqXnXIXIXIXPX=.v.g.a.a.;.+.tXK V z & YXYXYXYXYXYX",
"[.NXcXqXIXIXIXIXIXIXIXIXIXaXc.c.d.d.>.3.) HXB M g & YXYXYXYXYXYX",
"/.NXqXqXZXZXVXVXVXVXNXNXcX>.b.h.f.f.4.;.~ |.M x d # YXYXYXYXYXYX",
"/.nXqX5X5X5X2X1X;X;X-X|.{ h.L.M.M.n.6.) m M l l a # YXYXYXYXYXYX",
"!.cX5X5X3X2X1X<X-X-X|.}.1.I.K.N.N.6.5.U n l k j u # YXYXYXYXYXYX",
"L cX5X2X2X<X;X;X-X|.}..XM.U.B.V.m.9.} v l z j d y @ YXYXYX    YX",
"D cX2X2XqXqX5X5X3X2X;X| R.U.B.B.A.Z.E J J V p p 0 @             ",
"D qX1X<XIXIXIXIXUXLXSXN.E.H.F.F.D.2.rXxXxX6Xp a 9 +             ",
"A qX;X-XIXIXUXKXLXAXC.jXE.H.H.J.D.] xXxX6X4Xu r 5 +             ",
"b 5X-X-XIXUXKXJXLXAXn.kXgXT.J.pX2.oXqX6X:X@Xr w 2 +             ",
"b 7X=X}.UX8X9X9X4X3X9.lXgXgXiXsX' `./.W.L [.w 9 3 +             ",
"v 3X=X(.JXCXCXBXMXvX8.FXzXiXaX8.! *X{.].].].9 7 = +             ",
"k 3X).~.HXvXbXbXxXeXtXGXGXGXfXQ ].]././.^.`.7 7 = .         YXYX",
"g 1X~.L HX6X6X4X4XoXdXFXGXfXE /.!.!.!.H H /.5 5 = .     YXYXYXYX",
"h =XL K CXCXMXMXvXeX[ mXtX~ #X@X{.{.].`./.^.5 1 $ O YXYXYXYXYXYX",
"h {.G V CX>X,X,X{. X[ W T H H H H D A A b ^.4 1 $ O YXYXYXYXYXYX",
"a ).V B MXbXxX6X6XXXI ! ].].]././.!.!.^./.`.1 - % . YXYXYXYXYXYX",
"i _.B M vXbXxXxXxX&XOX$X#X@X@X{./.`.`.`././.- - o . YXYXYXYXYXYX",
"0 !.g d %X%X+X+X'.'.'.^./.^.W.W.W.S S S Z Z o o X . YXYXYXYXYXYX",
"YX6 < & 2 < 2 < < < < < < < * , , * * * * * . . . YXYXYXYXYXYXYX",
"YXYXYXYXYXYXYXYXYXYXYXYXYXYXYXYXYXYXYXYXYXYXYXYXYXYXYXYXYXYXYXYX",
"YXYXYXYXYXYXYXYXYXYXYXYXYXYXYXYXYXYXYXYXYXYXYXYXYXYXYXYXYXYXYXYX",
"YXYXYXYXYXYXYXYXYXYXYXYXYXYXYXYXYXYXYXYXYXYXYXYXYXYXYXYXYXYXYXYX"
};
