/* XPM */
static char *intersection[] = {
/* columns rows colors chars-per-pixel */
"22 22 12 1",
"  c black",
". c gray19",
"X c #595454",
"o c navy",
"O c blue",
"+ c #800000",
"@ c red",
"# c #838183",
"$ c #FF8080",
"% c gray87",
"& c gray100",
"* c None",
/* pixels */
"**********************",
"**********************",
"***X***********X *****",
"*** X**********X *****",
"**** X********X ******",
"***** X*******X ******",
"****** X*****X *******",
"******* X****X *******",
"******** X*.. ********",
"********* .$@.********",
"*********.$@@+.*******",
"*********.@@@+.*******",
"**********.++.********",
"*********X .. X*******",
"*********X *** X******",
"********X ***** X*****",
"********X ****** X****",
"*******X ******** X***",
"*******X ********* X**",
"**********************",
"**********************",
"**********************"
};
