<?xml version="1.0" encoding="UTF-8" standalone="no"?>
<!DOCTYPE svg PUBLIC "-//W3C//DTD SVG 20010904//EN"
"http://www.w3.org/TR/2001/REC-SVG-20010904/DTD/svg10.dtd">
<!-- Created with Inkscape (http://www.inkscape.org/) -->
<svg
   id="svg1"
   sodipodi:version="0.32"
   inkscape:version="0.37"
   width="48pt"
   height="48pt"
   sodipodi:docbase="/home/tom"
   sodipodi:docname="launch.svg"
   xmlns="http://www.w3.org/2000/svg"
   xmlns:inkscape="http://www.inkscape.org/namespaces/inkscape"
   xmlns:sodipodi="http://sodipodi.sourceforge.net/DTD/sodipodi-0.dtd"
   xmlns:xlink="http://www.w3.org/1999/xlink">
  <defs
     id="defs3">
    <linearGradient
       id="linearGradient676">
      <stop
         style="stop-color:#ff0000;stop-opacity:1;"
         offset="0.00000000"
         id="stop677" />
      <stop
         style="stop-color:#980000;stop-opacity:1;"
         offset="1.00000000"
         id="stop678" />
    </linearGradient>
    <linearGradient
       id="linearGradient672">
      <stop
         style="stop-color:#ffff00;stop-opacity:1;"
         offset="0.00000000"
         id="stop673" />
      <stop
         style="stop-color:#ff9800;stop-opacity:1;"
         offset="1.00000000"
         id="stop674" />
    </linearGradient>
    <linearGradient
       id="linearGradient584">
      <stop
         style="stop-color:#ffffff;stop-opacity:1;"
         offset="0.00000000"
         id="stop585" />
      <stop
         style="stop-color:#ffffff;stop-opacity:0;"
         offset="1.00000000"
         id="stop586" />
    </linearGradient>
    <linearGradient
       id="linearGradient578">
      <stop
         style="stop-color:#d9cce6;stop-opacity:1;"
         offset="0.00000000"
         id="stop579" />
      <stop
         style="stop-color:#73667f;stop-opacity:1;"
         offset="1.00000000"
         id="stop580" />
    </linearGradient>
    <linearGradient
       xlink:href="#linearGradient584"
       id="linearGradient581"
       x1="-0.30278516"
       y1="0.33734667"
       x2="1.76370168"
       y2="0.30667880" />
    <linearGradient
       xlink:href="#linearGradient584"
       id="linearGradient583"
       x1="0.13005131"
       y1="-0.18484454"
       x2="2.26660824"
       y2="-0.21655229"
       gradientTransform="scale(0.967204,1.033908)" />
    <linearGradient
       xlink:href="#linearGradient578"
       id="linearGradient654"
       x1="0.00000000"
       y1="0.00000000"
       x2="1.00000000"
       y2="0.00000000" />
    <linearGradient
       xlink:href="#linearGradient578"
       id="linearGradient655"
       x1="0.00000000"
       y1="-0.00000000"
       x2="1.00000000"
       y2="-0.00000000" />
    <linearGradient
       xlink:href="#linearGradient578"
       id="linearGradient653"
       x1="1.79798734"
       y1="0.48905253"
       x2="2.75691390"
       y2="0.48905253"
       gradientTransform="scale(0.556177,1.797987)" />
    <linearGradient
       xlink:href="#linearGradient672"
       id="linearGradient682"
       x1="0.13986014"
       y1="0.90140843"
       x2="0.75524473"
       y2="0.23943663" />
    <linearGradient
       xlink:href="#linearGradient676"
       id="linearGradient702"
       x1="0.00000000"
       y1="-0.00000000"
       x2="1.00000000"
       y2="-0.00000000" />
  </defs>
  <sodipodi:namedview
     id="base"
     pagecolor="#ffffff"
     bordercolor="#666666"
     borderopacity="1.0"
     inkscape:pageopacity="0.0"
     inkscape:pageshadow="2"
     inkscape:zoom="2"
     inkscape:cx="19.2519531"
     inkscape:cy="27.1629181"
     inkscape:window-width="1018"
     inkscape:window-height="711"
     inkscape:window-x="0"
     inkscape:window-y="30" />
  <path
     style="fill:url(#linearGradient654);fill-rule:evenodd;stroke:#261933;stroke-opacity:1;stroke-width:1pt;stroke-linejoin:miter;stroke-linecap:butt;fill-opacity:0.75;"
     d="M 16.314675 35.329897 C 19.268533 37.988369 22.222391 40.646841 25.176249 43.305313 C 36.99168 34.665279 51.022505 22.923694 57.964071 12.068267 C 59.293307 7.7851729 59.293307 6.160551 57.964071 3.206693 C 55.89637 2.0989963 52.056355 2.3205357 49.102497 3.8713111 C 34.628594 11.699034 25.914713 21.742151 16.314675 35.329897 z "
     id="path666"
     sodipodi:nodetypes="cccccc" />
  <path
     style="fill:url(#linearGradient581);fill-rule:evenodd;stroke:none;stroke-opacity:1;stroke-width:1pt;stroke-linejoin:miter;stroke-linecap:butt;fill-opacity:0.75;"
     d="M 31.60089 17.60675 L 43.564014 16.942132 L 44.007093 27.354481 L 40.019384 30.677571 L 40.019384 21.372919 L 28.05626 21.815998 L 31.60089 17.60675 z "
     id="path669"
     sodipodi:nodetypes="ccccccc" />
  <path
     style="fill:url(#linearGradient583);fill-rule:evenodd;stroke:none;stroke-opacity:1;stroke-width:1pt;stroke-linejoin:miter;stroke-linecap:butt;fill-opacity:0.75;"
     d="M 24.511631 24.696009 L 36.917834 24.031391 L 36.917834 34.222201 L 33.373204 36.880673 L 33.373204 28.462178 L 21.41008 28.905257 L 24.511631 24.696009 z "
     id="path670"
     sodipodi:nodetypes="ccccccc" />
  <path
     style="fill:url(#linearGradient653);fill-rule:evenodd;stroke:#261933;stroke-opacity:1;stroke-width:1pt;stroke-linejoin:miter;stroke-linecap:butt;fill-opacity:0.75;"
     d="M 19.416226 31.12065 L 29.607035 18.714447 L 18.751608 19.600604 L 6.3454048 31.563729 L 19.416226 31.12065 z "
     id="path667" />
  <path
     style="font-size:12;fill:url(#linearGradient655);fill-opacity:0.75;fill-rule:evenodd;stroke:#261933;stroke-width:0.990697pt;stroke-opacity:1;"
     d="M 42.013238 30.012953 L 42.013238 41.286843 L 29.607035 52.166887 L 29.828575 40.015044 L 42.013238 30.012953 z "
     id="path668"
     sodipodi:nodetypes="ccccc" />
  <path
     style="fill:url(#linearGradient682);fill-rule:evenodd;stroke:#261933;stroke-opacity:1;stroke-width:1pt;stroke-linejoin:miter;stroke-linecap:butt;fill-opacity:0.75;"
     d="M 17.115384 35.997596 C 12.179487 37.451923 7.5080127 39.963942 6.2740385 44.326923 C 4.863782 48.205128 3.9823718 52.083333 3.6298077 55.961538 C 7.0673076 56.402243 11.5625 57.900641 15.528846 56.490385 C 20.20032 54.242789 23.54968 49.879808 24.783654 43.401442 C 22.227564 40.933493 19.671474 38.465545 17.115384 35.997596 z "
     id="path671"
     sodipodi:nodetypes="cccccc" />
  <path
     style="fill:url(#linearGradient702);fill-rule:evenodd;stroke:none;stroke-opacity:1;stroke-width:1pt;stroke-linejoin:miter;stroke-linecap:butt;fill-opacity:0.75;"
     d="M 18.966346 38.509615 C 19.935897 39.479166 20.905449 40.448718 21.875 41.418269 C 21.875 43.974359 20.817308 45.472756 18.701923 45.913461 C 17.379808 46.354166 16.057692 46.266025 14.735577 45.649038 C 14.206731 44.326923 14.206731 43.004807 14.735577 41.682692 C 15.352564 40.096154 16.498397 38.774038 18.966346 38.509615 z "
     id="path675"
     sodipodi:nodetypes="cccccc" />
</svg>
