/* XPM */
static char *line3[] = {
/* columns rows colors chars-per-pixel */
"44 22 2 1",
"  c black",
". c None",
/* pixels */
"............................................",
"............................................",
"............................................",
"............................................",
"............................................",
"............................................",
"............................................",
"............................................",
"............................................",
"....                                    ....",
"....                                    ....",
"....                                    ....",
"............................................",
"............................................",
"............................................",
"............................................",
"............................................",
"............................................",
"............................................",
"............................................",
"............................................",
"............................................"
};
