/* XPM */
static char *line5[] = {
/* columns rows colors chars-per-pixel */
"44 22 2 1",
"  c black",
". c None",
/* pixels */
"............................................",
"............................................",
"............................................",
"............................................",
"............................................",
"............................................",
"............................................",
"............................................",
"....                                    ....",
"....                                    ....",
"....                                    ....",
"....                                    ....",
"....                                    ....",
"............................................",
"............................................",
"............................................",
"............................................",
"............................................",
"............................................",
"............................................",
"............................................",
"............................................"
};
