/* XPM */
static char * segment_xpm[] = {
"22 22 12 1",
" 	c None",
".	c #303030",
"+	c #F9E595",
"@	c #FFCD00",
"#	c #BFA026",
"$	c #320330",
"%	c #000000",
"&	c #595454",
"*	c #5F0154",
"=	c #FF0095",
"-	c #FF0000",
";	c #E80026",
"                      ",
"                      ",
"                      ",
"                      ",
"                      ",
"   ..                 ",
"  .+@.                ",
" .+@@#.               ",
" .@@@#.   $$          ",
"  .##.%&*$=-$         ",
"   ..  %$=--;$        ",
"        $---;$   ..   ",
"         $;;$%& .+@.  ",
"          $$  %.+@@#. ",
"               .@@@#. ",
"                .##.  ",
"                 ..   ",
"                      ",
"                      ",
"                      ",
"                      ",
"                      "};
