/* XPM */
static char *parallel[] = {
/* columns rows colors chars-per-pixel */
"22 22 13 1",
"  c black",
". c gray19",
"X c #595454",
"o c navy",
"O c blue",
"+ c #800000",
"@ c red",
"# c #BFA026",
"$ c #FFCD00",
"% c #FF8080",
"& c #F9E595",
"* c gray100",
"= c None",
/* pixels */
"======================",
"======================",
"======================",
"======================",
"==XX==================",
"==  XXX==..===========",
"====   X.&$.==========",
"=======.&$$#.=========",
"=======.$$$#.X========",
"========.##.  XXX=====",
"=========..===   XX===",
"==XX=============  ===",
"==  XXX===============",
"====   XX=============",
"=======  XXX==========",
"=========   XX========",
"============  XXX=====",
"==============   XX===",
"=================  ===",
"======================",
"======================",
"======================"
};
