/* XPM */
static char *point[] = {
/* columns rows colors chars-per-pixel */
"22 22 9 1",
"  c black",
". c gray19",
"X c blue",
"o c #800000",
"O c red",
"+ c #FF8080",
"@ c gray87",
"# c gray100",
"$ c None",
/* pixels */
"$$$$$$$$$$$$$$$$$$$$$$",
"$$$$$$$$$$$$$$$$$$$$$$",
"$$$$$$$$$$$$$$$$$$$$$$",
"$$$$$$$$$$$$$$$$$$$$$$",
"$$$$$$$$$$$$$$$$$$$$$$",
"$$$$$$$$$$$$$$$$$$$$$$",
"$$$$$$$$$$$$$$$$$$$$$$",
"$$$$$$$$$$$$$$$$$$$$$$",
"$$$$$$$$$$..$$$$$$$$$$",
"$$$$$$$$$.+O.$$$$$$$$$",
"$$$$$$$$.+OOo.$$$$$$$$",
"$$$$$$$$.OOOo.$$$$$$$$",
"$$$$$$$$$.oo.$$$$$$$$$",
"$$$$$$$$$$..$$$$$$$$$$",
"$$$$$$$$$$$$$$$$$$$$$$",
"$$$$$$$$$$$$$$$$$$$$$$",
"$$$$$$$$$$$$$$$$$$$$$$",
"$$$$$$$$$$$$$$$$$$$$$$",
"$$$$$$$$$$$$$$$$$$$$$$",
"$$$$$$$$$$$$$$$$$$$$$$",
"$$$$$$$$$$$$$$$$$$$$$$",
"$$$$$$$$$$$$$$$$$$$$$$"
};
