/* XPM */
static char * redo_xpm[] = {
"32 32 71 1",
" 	c None",
".	c #000C13",
"+	c #00263E",
"@	c #002F4D",
"#	c #00385B",
"$	c #003455",
"%	c #002D4A",
"&	c #001A2B",
"*	c #004977",
"=	c #00558B",
"-	c #00609D",
";	c #005992",
">	c #004C7D",
",	c #00395E",
"'	c #003353",
")	c #001624",
"!	c #002339",
"~	c #006AAE",
"{	c #0071BA",
"]	c #0072BB",
"^	c #0076C1",
"/	c #006EB5",
"(	c #00446F",
"_	c #002944",
":	c #005D99",
"<	c #005286",
"[	c #007AC8",
"}	c #003E66",
"|	c #00436E",
"1	c #0065A6",
"2	c #007FD0",
"3	c #0083D7",
"4	c #0064A1",
"5	c #002943",
"6	c #00416B",
"7	c #0087DE",
"8	c #008CE6",
"9	c #005B95",
"0	c #0091ED",
"a	c #006CB1",
"b	c #004A7A",
"c	c #0095F4",
"d	c #0083D6",
"e	c #007DCD",
"f	c #009AFC",
"g	c #0A83D1",
"h	c #15A4FF",
"i	c #056FB3",
"j	c #004F81",
"k	c #228ED3",
"l	c #3BB3FF",
"m	c #1376B6",
"n	c #00558C",
"o	c #3A99D5",
"p	c #61C1FF",
"q	c #217EB9",
"r	c #51A3D7",
"s	c #86D0FF",
"t	c #3086BD",
"u	c #69ADD9",
"v	c #ACDFFF",
"w	c #3E8DC0",
"x	c #80B8DB",
"y	c #D2EDFF",
"z	c #4C95C3",
"A	c #005F96",
"B	c #006BA5",
"C	c #3B90BC",
"D	c #007DA9",
"E	c #0085B0",
"F	c #007EAC",
"                                ",
"                                ",
"                                ",
"                                ",
"                                ",
"                                ",
"        .+@######$%&            ",
"      .%##*=----;>,#')          ",
"     !#,=~{{{{{{{{{;,#+         ",
"    @#>]^^^^^^^^^^^^/(#_        ",
"  .$,-{:;**<;~[[[[[[[^(#!       ",
"  $};*,,,,#,,,|1222222^}#       ",
" $}}}},      ',}>2333334}_      ",
"5666}          56>3777736}      ",
"6|(             !|<888889|      ",
"**           ___5#*]0000a(____',",
"            'bbbbbb4ccccdbbbbbbb",
"             *>efffffffffffff~>>",
"              *<ghhhhhhhhhhhi<j ",
"               >=klllllllllm=<  ",
"                jnopppppppqnn   ",
"                 <9rssssst9;    ",
"                  =:uvvvw:9     ",
"                   ;-xyz--      ",
"                    ABCB4       ",
"                     DEF        ",
"                                ",
"                                ",
"                                ",
"                                ",
"                                ",
"                                "};
