/* XPM */
static char * select_xpm[] = {
"22 22 18 1",
" 	c None",
".	c #141414",
"+	c #232323",
"@	c #CECECE",
"#	c #FFFFFF",
"$	c #EEEEEE",
"%	c #7D7D7D",
"&	c #1D1D1D",
"*	c #AEAEAE",
"=	c #DEDEDE",
"-	c #252525",
";	c #BEBEBE",
">	c #383838",
",	c #5C5C5C",
"'	c #9D9D9D",
")	c #2A2A2A",
"!	c #1A1A1A",
"~	c #3C3C3C",
"                      ",
"      .               ",
"      +.              ",
"      +@.             ",
"      +#@.            ",
"      +##@.           ",
"      +###@.          ",
"      +####@.         ",
"      +#####@.        ",
"      +######@.       ",
"      +#####$% +      ",
"      +####@.&        ",
"      +##*=#-         ",
"      +;>+,#')        ",
"      &+  +@#-        ",
"          !~#'-       ",
"           +;#!       ",
"            >#%)      ",
"            !)!       ",
"                      ",
"                      ",
"                      "};
