/* XPM */
static char * test_parallel_xpm[] = {
"22 22 5 1",
" 	c None",
".	c #FD0000",
"+	c #595454",
"@	c #000000",
"#	c #F90101",
"                      ",
"               ....   ",
"              ......  ",
"              .   ... ",
"  ++               .. ",
"  @@+++            .. ",
"    @@@++         ..  ",
"       @@+++     ..   ",
"         @@@++  ..    ",
"            @@++#.    ",
"              @@..+   ",
"  ++             @@   ",
"  @@+++         ..    ",
"    @@@++       ..    ",
"       @@+++          ",
"         @@@++        ",
"            @@+++     ",
"              @@@++   ",
"                 @@   ",
"                      ",
"                      ",
"                      "};
