/* XPM */
static char * test_eq_points_xpm[] = {
"22 22 6 1",
" 	c None",
".	c #FD0000",
"+	c #303030",
"@	c #F9E595",
"#	c #FFCD00",
"$	c #BFA026",
"                      ",
"               ....   ",
"              ......  ",
"              .   ... ",
"                   .. ",
"  .........        .. ",
"  .........       ..  ",
"                 ..   ",
"  .........     ..    ",
"  .........     ..    ",
"                ..    ",
"                      ",
"       ++       ..    ",
"      +@#+      ..    ",
"     +@##$+           ",
"   +++###$+           ",
"  +@#++$$+            ",
" +@##$+++             ",
" +###$+               ",
"  +$$+                ",
"   ++                 ",
"                      "};
