/* XPM */
static char * test_angle_xpm[] = {
"22 22 10 1",
" 	c None",
".	c #303030",
"+	c #FF0000",
"@	c #F9E595",
"#	c #FFCD00",
"$	c #BFA026",
"%	c #595454",
"&	c #000000",
"*	c #D81313",
"=	c #FA0000",
"                      ",
"   ..          ++++   ",
"  .@#.        ++++++  ",
" .@##$.%%     +   +++ ",
" .###$.&&%%%       ++ ",
"  .$$.   &&&%%     ++ ",
"  ...       &&%   ++  ",
"      %       &% ++   ",
"     %&        &*+    ",
"    %&&%%       =+    ",
"   &&&&&&%      ++.   ",
"     &&  &%     .@#.  ",
"    & &   &%   .++#$. ",
"           &%  .++#$. ",
"   &       &%   .$$.  ",
"           & &   ..   ",
"   ..                 ",
"  .@#. & &            ",
" .@##$.               ",
" .###$.               ",
"  .$$.                ",
"   ..                 "};
