/* XPM */
static char * undo_xpm[] = {
"32 32 71 1",
" 	c None",
".	c #007EAC",
"+	c #0085B0",
"@	c #007DA9",
"#	c #0064A1",
"$	c #006BA5",
"%	c #3B90BC",
"&	c #005F96",
"*	c #00609D",
"=	c #4C95C3",
"-	c #D2EDFF",
";	c #80B8DB",
">	c #005992",
",	c #005B95",
"'	c #005D99",
")	c #3E8DC0",
"!	c #ACDFFF",
"~	c #69ADD9",
"{	c #00558B",
"]	c #3086BD",
"^	c #86D0FF",
"/	c #51A3D7",
"(	c #005286",
"_	c #00558C",
":	c #217EB9",
"<	c #61C1FF",
"[	c #3A99D5",
"}	c #004F81",
"|	c #1376B6",
"1	c #3BB3FF",
"2	c #228ED3",
"3	c #004C7D",
"4	c #056FB3",
"5	c #15A4FF",
"6	c #0A83D1",
"7	c #004977",
"8	c #006AAE",
"9	c #009AFC",
"0	c #007DCD",
"a	c #004A7A",
"b	c #0083D6",
"c	c #0095F4",
"d	c #003353",
"e	c #00395E",
"f	c #002944",
"g	c #00446F",
"h	c #006CB1",
"i	c #0091ED",
"j	c #0072BB",
"k	c #00385B",
"l	c #002943",
"m	c #00436E",
"n	c #008CE6",
"o	c #002339",
"p	c #00416B",
"q	c #003E66",
"r	c #0083D7",
"s	c #0087DE",
"t	c #007FD0",
"u	c #003455",
"v	c #0076C1",
"w	c #0065A6",
"x	c #007AC8",
"y	c #0071BA",
"z	c #000C13",
"A	c #006EB5",
"B	c #002F4D",
"C	c #00263E",
"D	c #001624",
"E	c #002D4A",
"F	c #001A2B",
"                                ",
"                                ",
"                                ",
"                                ",
"                                ",
"                                ",
"        .+@                     ",
"       #$%$&                    ",
"      **=-;*>                   ",
"     ,')!!!~'{                  ",
"    >,]^^^^^/,(                 ",
"   __:<<<<<<<[_}                ",
"  ({|1111111112{3               ",
" }(4555555555556(7              ",
"3389999999999999037             ",
"aaaaaaabcccc#aaaaaad            ",
"edffffghiiiij7klfff           77",
"      m,nnnnn(mo             gmp",
"      qprssssr3pl          qpppl",
"      fq#rrrrrt3qed      eqqqqu ",
"       kqvttttttwmeeekeeee7>qu  ",
"       okgvxxxxxxx8>(77>'y*euz  ",
"        fkgAvvvvvvvvvvvvj3kB    ",
"         Cke>yyyyyyyyy8{eko     ",
"          Ddke3>****{7kkEz      ",
"            FEukkkkkkBCz        ",
"                                ",
"                                ",
"                                ",
"                                ",
"                                ",
"                                "};
