/* XPM */
static char * window_fullscreen_xpm[] = {
"32 32 283 2",
"  	c None",
". 	c #3892E1",
"+ 	c #3790DE",
"@ 	c #3489D6",
"# 	c #3286D3",
"$ 	c #3083D1",
"% 	c #2E7FCF",
"& 	c #2C7BCC",
"* 	c #2A78CA",
"= 	c #2875C8",
"- 	c #2671C6",
"; 	c #246DC3",
"> 	c #2269C1",
", 	c #2067BE",
"' 	c #1E63BC",
") 	c #1B5FB9",
"! 	c #195CB8",
"~ 	c #1858B6",
"{ 	c #1655B3",
"] 	c #1451B1",
"^ 	c #124DAE",
"/ 	c #104AAC",
"( 	c #0D47A9",
"_ 	c #0B43A8",
": 	c #0940A5",
"< 	c #083CA3",
"[ 	c #0638A1",
"} 	c #04359E",
"| 	c #023199",
"1 	c #3893E2",
"2 	c #3995E5",
"3 	c #4EA4EB",
"4 	c #4BA0E9",
"5 	c #489BE8",
"6 	c #4597E6",
"7 	c #4293E4",
"8 	c #3F8FE2",
"9 	c #3B8AE0",
"0 	c #3886DE",
"a 	c #3582DD",
"b 	c #327DDB",
"c 	c #2E79D9",
"d 	c #2B74D7",
"e 	c #2870D5",
"f 	c #256BD3",
"g 	c #2167D2",
"h 	c #1E63D0",
"i 	c #1B5ECE",
"j 	c #185ACC",
"k 	c #1455CA",
"l 	c #1151C8",
"m 	c #0E4CC7",
"n 	c #0A48C5",
"o 	c #0844C3",
"p 	c #0641C1",
"q 	c #053FBF",
"r 	c #033ABB",
"s 	c #0133A5",
"t 	c #002C8F",
"u 	c #6EBBF5",
"v 	c #8ACEFF",
"w 	c #85C9FF",
"x 	c #80C4FF",
"y 	c #7ABEFF",
"z 	c #74B8FF",
"A 	c #6EB2FF",
"B 	c #68ACFF",
"C 	c #61A6FF",
"D 	c #5BA0FF",
"E 	c #559AFF",
"F 	c #4E93FF",
"G 	c #488DFF",
"H 	c #4186FF",
"I 	c #3B80FF",
"J 	c #347AFF",
"K 	c #2E73FF",
"L 	c #276CFF",
"M 	c #2066FF",
"N 	c #1A5FFF",
"O 	c #1359FF",
"P 	c #0C52FF",
"Q 	c #054BFF",
"R 	c #0349FF",
"S 	c #0347FD",
"T 	c #0231C5",
"U 	c #0032A4",
"V 	c #80C5FF",
"W 	c #7BBFFF",
"X 	c #76BAFF",
"Y 	c #70B5FF",
"Z 	c #6AAFFF",
"` 	c #64A9FF",
" .	c #5EA3FF",
"..	c #589DFF",
"+.	c #5297FF",
"@.	c #4C91FF",
"#.	c #458BFF",
"$.	c #3F84FF",
"%.	c #397EFF",
"&.	c #3277FF",
"*.	c #2C71FF",
"=.	c #256BFF",
"-.	c #1E64FF",
";.	c #185EFF",
">.	c #1157FF",
",.	c #0B50FF",
"'.	c #044AFF",
").	c #0330D9",
"!.	c #84C8FF",
"~.	c #7BC0FF",
"{.	c #77BBFF",
"].	c #71B6FF",
"^.	c #6CB1FF",
"/.	c #67ABFF",
"(.	c #4F94FF",
"_.	c #498EFF",
":.	c #4388FF",
"<.	c #3C82FF",
"[.	c #367BFF",
"}.	c #3075FF",
"|.	c #296FFF",
"1.	c #2368FF",
"2.	c #1C62FF",
"3.	c #165BFF",
"4.	c #0F55FF",
"5.	c #094FFF",
"6.	c #BFE1FF",
"7.	c #BDE0FF",
"8.	c #BBDEFF",
"9.	c #B9DBFF",
"0.	c #B7D9FF",
"a.	c #B4D6FF",
"b.	c #B1D4FF",
"c.	c #AFD1FF",
"d.	c #ACCEFF",
"e.	c #A9CBFF",
"f.	c #A6C8FF",
"g.	c #A3C5FF",
"h.	c #A0C2FF",
"i.	c #9DBFFF",
"j.	c #9ABCFF",
"k.	c #96B9FF",
"l.	c #93B6FF",
"m.	c #90B3FF",
"n.	c #8DB0FF",
"o.	c #89ACFF",
"p.	c #85A8FF",
"q.	c #82A5FE",
"r.	c #7FA2FE",
"s.	c #7EA1FD",
"t.	c #7DA0FD",
"u.	c #7DA0FC",
"v.	c #768CE3",
"w.	c #3994E5",
"x.	c #FFFFFF",
"y.	c #FEFEFE",
"z.	c #FDFDFE",
"A.	c #FBFBFD",
"B.	c #FAFAFC",
"C.	c #F9F9FB",
"D.	c #F7F7FA",
"E.	c #F6F6FA",
"F.	c #F5F5F9",
"G.	c #E7E6EC",
"H.	c #3893E4",
"I.	c #F32208",
"J.	c #F32C0C",
"K.	c #F43A12",
"L.	c #F54B1B",
"M.	c #F55321",
"N.	c #F43F15",
"O.	c #F32F0D",
"P.	c #F4F4F8",
"Q.	c #E5E4EB",
"R.	c #3792E3",
"S.	c #F43D14",
"T.	c #F54C1D",
"U.	c #F8F8FB",
"V.	c #F5501F",
"W.	c #F3F3F7",
"X.	c #E3E2E9",
"Y.	c #3690E2",
"Z.	c #F5612C",
"`.	c #F7743C",
" +	c #F7773F",
".+	c #F1F1F7",
"++	c #E1E0E7",
"@+	c #368FE1",
"#+	c #F88A52",
"$+	c #F99E69",
"%+	c #F9A16C",
"&+	c #F0F0F6",
"*+	c #DFDEE6",
"=+	c #358EE0",
"-+	c #EFEFF5",
";+	c #DDDCE4",
">+	c #348CDF",
",+	c #FCFCFD",
"'+	c #F3F3F8",
")+	c #F2F2F7",
"!+	c #EEEEF4",
"~+	c #DAD9E3",
"{+	c #338BDE",
"]+	c #FEFEFF",
"^+	c #EDEDF4",
"/+	c #D8D7E1",
"(+	c #3289DD",
"_+	c #EEEEF5",
":+	c #EBEBF3",
"<+	c #D6D5DF",
"[+	c #3188DC",
"}+	c #FBFBFC",
"|+	c #EAEAF2",
"1+	c #D4D3DE",
"2+	c #3186DB",
"3+	c #E9E9F2",
"4+	c #D2D1DC",
"5+	c #3085DA",
"6+	c #F6F6F9",
"7+	c #E8E8F1",
"8+	c #D0CEDA",
"9+	c #2F83DA",
"0+	c #F9F9FC",
"a+	c #F1F1F6",
"b+	c #E6E6F0",
"c+	c #CFCDD9",
"d+	c #2E82D9",
"e+	c #F4F4F9",
"f+	c #ECECF3",
"g+	c #E5E5EF",
"h+	c #CECDD9",
"i+	c #2D81D8",
"j+	c #E4E4EF",
"k+	c #2C7FD7",
"l+	c #EFEFF6",
"m+	c #E3E3EE",
"n+	c #CECCD9",
"o+	c #2C7ED6",
"p+	c #E7E7F0",
"q+	c #E2E2ED",
"r+	c #CDCCD9",
"s+	c #2B7CD5",
"t+	c #E0E0EC",
"u+	c #2A7BD4",
"v+	c #E6E6EF",
"w+	c #DFDFEC",
"x+	c #CDCBD8",
"y+	c #2979D3",
"z+	c #F2F2F5",
"A+	c #F0F0F3",
"B+	c #EEEEF2",
"C+	c #ECECF0",
"D+	c #EBEAEF",
"E+	c #E9E8ED",
"F+	c #E1E0E8",
"G+	c #DDDCE5",
"H+	c #DBDAE3",
"I+	c #DAD8E2",
"J+	c #D8D6E0",
"K+	c #D6D4DF",
"L+	c #D4D3DD",
"M+	c #D0CFDA",
"N+	c #CFCEDA",
"O+	c #C8C7D4",
"P+	c #2878D2",
"Q+	c #2674CF",
"R+	c #2470CD",
"S+	c #226DCB",
"T+	c #2069C8",
"U+	c #1D65C6",
"V+	c #1B62C3",
"W+	c #195EC1",
"X+	c #175ABE",
"Y+	c #1556BC",
"Z+	c #1352B9",
"`+	c #114FB7",
" @	c #0E4BB5",
".@	c #0C47B2",
"+@	c #0A44B0",
"@@	c #0840AD",
"#@	c #063CAB",
"$@	c #0438A8",
"%@	c #0235A6",
"                                                                ",
"  . + @ # $ % & * = - ; > , ' ) ! ~ { ] ^ / ( _ : < [ } |       ",
"1 2 3 4 5 6 7 8 9 0 a b c d e f g h i j k l m n o p q r s t     ",
"2 u v w x y z A B C D E F G H I J K L M N O P Q R R R S T U     ",
"2 v w V W X Y Z `  ...+.@.#.$.%.&.*.=.-.;.>.,.'.R R R R ).U     ",
"2 !.x ~.{.].^./.C D E (._.:.<.[.}.|.1.2.3.4.5.R R R R R ).U     ",
"2 6.7.8.9.0.a.b.c.d.e.f.g.h.i.j.k.l.m.n.o.p.q.r.s.s.t.u.v.U     ",
"w.x.x.x.x.x.x.x.x.x.x.x.x.x.x.x.x.x.x.x.y.z.A.B.C.D.E.F.G.U     ",
"H.x.x.I.J.K.L.x.x.x.x.x.x.x.x.x.x.x.x.y.z.A.B.M.N.O.I.P.Q.U     ",
"R.x.x.O.S.T.x.x.x.x.x.x.x.x.x.x.x.x.y.z.A.B.C.U.V.S.J.W.X.U     ",
"Y.x.x.N.V.Z.`.x.x.x.x.x.x.x.x.x.x.y.z.A.B.C.U. +Z.T.K..+++U     ",
"@+x.x.M.x. +#+$+x.x.x.x.x.x.x.x.y.z.A.B.C.U.%+#+`.W.L.&+*+U     ",
"=+x.x.x.x.x.%+x.x.x.x.x.x.x.x.y.z.A.B.C.U.D.F.$+W..+&+-+;+U     ",
">+x.x.x.x.x.x.x.x.x.x.x.x.x.y.z.,+B.C.U.D.F.P.'+)+&+-+!+~+U     ",
"{+x.x.x.x.x.x.x.x.x.x.x.x.]+z.,+B.C.U.D.F.P.'+)+&+-+!+^+/+U     ",
"(+x.x.x.x.x.x.x.x.x.x.x.]+z.,+B.C.U.D.F.P.'+)+&+-+_+^+:+<+U     ",
"[+x.x.x.x.x.x.x.x.x.x.]+z.,+}+C.U.D.F.P.'+)+&+-+_+^+:+|+1+U     ",
"2+x.x.x.x.x.x.x.x.x.]+z.,+}+C.U.D.F.P.'+)+&+-+_+^+:+|+3+4+U     ",
"5+x.x.x.x.x.x.x.x.]+z.,+}+C.U.D.6+P.'+)+&+-+_+^+:+|+3+7+8+U     ",
"9+x.x.x.x.x.x.x.]+z.,+}+0+U.D.6+P.'+)+a+-+_+^+:+|+3+7+b+c+U     ",
"d+x.x.x.x.x.$+]+z.,+}+0+U.D.6+e+'+)+a+-+_+^+f+%+3+7+b+g+h+U     ",
"i+x.x.L.x.`.#+%+,+}+0+U.D.6+e+'+)+a+-+_+^+f+$+#+ +b+M.j+h+U     ",
"k+x.x.K.T.Z. +,+}+B.U.D.6+e+'+)+a+l+_+^+f+|+3+`.Z.V.N.m+n+U     ",
"o+x.x.J.S.V.,+}+B.U.D.6+e+'+)+a+l+_+^+f+|+3+7+p+T.S.O.q+r+U     ",
"s+x.x.I.O.N.M.B.U.D.6+F.'+)+a+l+_+^+f+|+3+7+p+L.K.J.I.t+r+U     ",
"u+x.x.z.,+}+B.U.D.6+F.'+)+a+&+_+^+f+|+3+7+p+v+j+m+q+t+w+x+U     ",
"y+z+A+B+C+D+E+G.Q.X.F+*+G+H+I+J+K+L+4+M+N+c+h+h+n+r+r+x+O+U     ",
"P+Q+R+S+T+U+V+W+X+Y+Z+`+ @.@+@@@#@$@%@U U U U U U U U U U U     ",
"                                                                ",
"                                                                ",
"                                                                ",
"                                                                "};
